<svg xmlns="http://www.w3.org/2000/svg" version="1.1" height="100" width="100" viewBox="0 0 503 503"><path d="M0 0h250.379C378.213 0 503 121.501 503 233.632V503H251.15C127.018 503 0 373.578 0 233.406z" fill="#0b295a" fill-opacity="1" fill-rule="evenodd" stroke="none" stroke-width="1" stroke-linecap="butt" stroke-linejoin="miter" stroke-opacity="1"/><path d="M303.368 125.46c-.01-.026.453.056 1.349.239.896.182 1.435.235 3.152.7 1.719.462 3.116.677 5.57 1.486 2.456.81 4.597 1.368 7.702 2.576 3.104 1.208 5.855 2.27 9.52 3.918 3.664 1.648 6.344 2.897 10.367 5.218 4.022 2.321 7.224 4.116 11.456 7.156 4.233 3.04 7.706 5.594 12.002 9.368 4.296 3.775 7.766 7.218 11.982 11.718 4.216 4.5 7.275 8.42 11.024 13.796 3.75 5.376 6.81 9.995 9.9 16.145 3.09 6.15 5.846 11.531 8.107 18.315 2.261 6.784 4.106 13.22 5.747 20.395 1.642 7.174 2.221 13.929 2.805 21.415.583 7.486.165 14.573-.38 22.152-.545 7.578-2.028 14.797-3.716 22.236-1.689 7.439-4.211 14.596-6.993 21.667-2.782 7.07-6.357 13.94-10.12 20.437-3.765 6.497-8.34 12.854-12.927 18.609-4.586 5.755-10.017 11.426-15.236 16.313-5.219 4.887-11.303 9.777-16.947 13.713-5.644 3.936-12.168 8.04-18.022 10.985-5.853 2.944-12.362 5.847-18.108 8.08-5.746 2.233-12.703 4.386-18.274 5.668-5.57 1.282-11.923 2.573-17.089 3.243-5.166.67-11.19 1.24-15.83 1.382-4.64.143-9.577.088-13.592.013-4.014-.073-8.953-.64-12.259-1.028a211.62 211.62 0 0 1-9.46-1.364 172.128 172.128 0 0 1-7.128-1.375c-1.737-.372-3.066-.65-3.96-.827-.892-.177-1.349-.253-1.34-.223a1.214 1.214 0 0 0 .15.29c.033.048.071.094.11.14a2.374 2.374 0 0 0 .279.268 3.392 3.392 0 0 0 .347.257c.062.041.128.083.195.124.068.038.136.082.207.123.072.036.143.08.218.12.075.035.15.08.226.119.078.036.155.079.234.118.08.034.159.077.24.116.08.035.161.077.243.116.082.035.163.078.245.116.082.035.164.077.245.115.083.035.164.077.245.116.082.035.162.077.242.116.08.034.16.077.237.116.08.034.156.078.232.117.076.035.15.079.223.119.074.035.144.08.214.12.07.036.137.08.203.121.067.037.129.082.19.124a4.049 4.049 0 0 1 .336.255 2.133 2.133 0 0 1 .265.266 1.45 1.45 0 0 1 .18.28.916.916 0 0 1 .082.296c-.009.046.384.19 1.159.424.774.235 2.79.697 4.318 1.031 1.528.335 4.245.965 6.484 1.318 2.24.352 5.638.964 8.54 1.259 2.904.295 6.94.718 10.452.888 3.513.17 8.123.25 12.187.237 4.063-.013 9.938-.454 14.472-.925 4.534-.47 10.744-1.419 15.644-2.423 4.899-1.004 11.317-2.649 16.468-4.24 5.152-1.592 11.614-4.072 16.9-6.283 5.287-2.21 12.246-5.734 17.407-8.826 5.162-3.092 11.29-7.132 16.32-10.843 5.03-3.71 11.165-8.937 15.738-13.461 4.574-4.525 9.647-10.149 13.842-15.197s8.725-11.802 12.17-17.48c3.445-5.678 7.267-12.778 9.832-18.933 2.566-6.154 5.158-13.204 7.082-19.56 1.924-6.357 3.661-13.931 4.592-20.429.93-6.497 1.605-13.646 1.874-20.073.27-6.428.02-13.667-.648-19.882a199.107 199.107 0 0 0-2.92-18.668c-1.22-5.891-2.93-12.186-4.888-17.57-1.959-5.386-4.079-10.905-6.395-15.773s-4.869-9.724-7.435-14.016c-2.567-4.292-5.325-8.477-8.024-12.15-2.699-3.673-5.428-7.238-8.134-10.27a246.875 246.875 0 0 0-7.797-8.368c-2.462-2.51-4.837-4.824-7.068-6.704-2.23-1.88-4.175-3.65-5.972-5.03a779.09 779.09 0 0 1-4.554-3.521c-1.232-.962-2.219-1.662-2.868-2.142-.65-.48-.976-.743-.953-.775.02-.033.39.174 1.085.601a49.695 49.695 0 0 1 3.023 2.014c1.28.921 2.855 2.065 4.702 3.416a79.784 79.784 0 0 1 6.193 5.037c2.19 1.971 4.708 4.18 7.223 6.686 2.514 2.506 5.218 5.377 7.976 8.414s5.569 6.718 8.318 10.409c2.75 3.69 5.57 8.019 8.184 12.34 2.613 4.32 5.204 9.343 7.562 14.25 2.358 4.906 4.82 10.765 6.55 16.286 1.73 5.52 3.57 11.759 4.817 17.704 1.246 5.946 2.204 12.714 2.888 18.989.684 6.274.745 13.789.482 20.28-.263 6.49-1.108 13.831-2.04 20.393-.932 6.561-2.99 14.355-4.926 20.776-1.937 6.42-4.731 14.195-7.627 20.274-2.895 6.079-6.569 12.974-10.043 18.711-3.475 5.737-8.452 12.523-12.685 17.624-4.232 5.1-9.884 11.35-14.714 15.695-4.83 4.346-10.747 9.278-15.823 13.032-5.076 3.753-12.02 8.215-17.372 11.093-5.351 2.879-11.983 6.11-17.318 8.352-5.336 2.243-12.098 4.508-17.298 6.128-5.2 1.62-11.901 3.008-16.847 4.039-4.946 1.03-11.419 1.68-15.997 2.176-4.578.495-10.69.6-14.795.638-4.105.037-9.769-.164-13.308-.485-3.539-.32-7.723-.748-10.643-1.16-2.92-.412-6.467-1-8.718-1.433-2.25-.431-5.126-1.007-6.664-1.38a560.96 560.96 0 0 0-3.516-.845c-.799-.188-1.214-.28-1.222-.27-.028.04.478.221 1.493.537 1.014.315 3.488 1.088 5.507 1.561 2.019.473 5.468 1.376 8.438 1.893 2.97.518 7.36 1.3 11.22 1.76 3.859.461 10.083 1.148 14.772 1.226 4.688.079 11.671.221 17.074-.23 5.402-.452 12.99-1.211 18.974-2.313 5.983-1.101 13.95-3.047 20.368-4.89 6.419-1.841 15.314-5.446 21.878-8.407 6.564-2.96 15.251-7.923 21.707-12.035 6.456-4.112 14.566-10.573 20.655-15.82 6.09-5.247 13.97-13.642 19.123-20.215 5.152-6.574 11.31-15.578 15.552-23.056 4.242-7.477 9.359-18.215 12.071-26.558 2.712-8.341 5.766-19.047 7.203-27.807 1.438-8.76 2.34-19.818 2.45-28.73.11-8.912-1.026-20.539-2.653-29.266-1.626-8.728-4.522-19.11-7.358-27.413-2.834-8.304-7.706-18.365-11.979-25.83-4.272-7.463-10.163-15.852-15.308-22.438-5.145-6.586-12.46-14.125-18.538-19.395-6.077-5.27-13.578-11.126-20.041-15.24-6.463-4.113-14.355-8.552-20.946-11.471-6.591-2.92-14.09-5.685-20.444-7.765-6.354-2.081-14.083-3.763-20.094-4.767-6.01-1.005-12.693-1.76-18.113-2.12-5.42-.36-11.414-.339-16.113-.19-4.699.15-9.871.589-13.74 1.086a248.834 248.834 0 0 0-10.708 1.637c-2.985.52-5.9 1.21-7.941 1.653-2.043.44-3.99.963-5.038 1.217-1.05.254-1.598.36-1.612.309-.013-.052.508-.256 1.533-.602a77.866 77.866 0 0 1 4.991-1.486c2.023-.525 4.954-1.302 7.924-1.896 2.97-.595 6.857-1.293 10.714-1.856 3.858-.563 9.133-1.074 13.827-1.282 4.694-.208 10.814-.283 16.234.025 5.42.307 12.25 1.03 18.263 1.989 6.013.96 13.983 2.652 20.344 4.694 6.36 2.042 14.029 4.829 20.627 7.715 6.598 2.887 14.743 7.414 21.214 11.5 6.472 4.085 14.215 10.071 20.301 15.317 6.087 5.247 13.692 13.023 18.846 19.589 5.155 6.566 11.236 15.165 15.519 22.611 4.283 7.446 8.73 17.302 11.97 25.445 3.238 8.142 6.096 19.626 7.734 28.34 1.638 8.714 2.871 20.748 2.774 29.648-.097 8.899-.97 20.279-2.393 29.027-1.422 8.748-4.491 19.786-7.186 28.119-2.696 8.332-7.91 19.513-12.131 26.984-4.222 7.472-10.5 16.794-15.63 23.365-5.13 6.57-12.808 14.445-18.612 19.982-5.804 5.536-15.075 12.616-21.504 16.737-6.429 4.122-15.364 9.339-21.901 12.315-6.537 2.976-14.856 6.2-21.15 8.371-6.295 2.17-15.53 4.27-21.488 5.404-5.958 1.132-13.779 2.035-19.158 2.526-5.378.49-12.623.482-17.29.451-4.668-.03-11.183-.597-15.027-1.001-3.844-.404-8.386-1.1-11.344-1.553-2.959-.452-6.575-1.268-8.587-1.666-2.011-.398-4.67-1.082-5.684-1.315-1.013-.231-1.52-.325-1.49-.271.06.106.722.383 1.95.82 1.227.436 4.21 1.297 6.565 1.921 2.354.627 6.451 1.579 9.875 2.267 3.424.689 9.789 1.756 14.24 2.17 4.451.412 11.809 1.045 17.178.99 5.37-.056 13.584-.319 19.736-1.003 6.153-.684 16.223-2.187 22.927-3.956 6.704-1.769 15.91-4.647 23.035-7.287 7.124-2.641 18.488-8.194 25.478-12.45 6.99-4.256 16.856-11.087 23.55-16.628 6.694-5.541 16.523-15.136 22.287-22.203 5.765-7.066 13.187-17.69 18.015-25.837 4.828-8.146 10.679-21.504 13.863-30.711 3.184-9.206 6.707-23.583 8-33.432 1.295-9.85 2.079-24.684 1.39-34.71-.688-10.027-2.83-24.668-5.456-34.408-2.627-9.739-7.604-23.563-12.019-32.585-4.415-9.022-11.96-21.493-17.936-29.414-5.978-7.922-15.696-18.612-22.939-25.102-7.242-6.49-18.628-15.116-26.767-19.914-8.138-4.799-19.67-10.394-28.107-13.78-8.438-3.387-21.55-7.098-30.07-8.641-8.519-1.543-20.33-2.923-28.471-3.157-8.142-.234-19.39.375-26.89 1.274-7.501.898-17.844 3.038-24.488 4.84-6.644 1.803-15.925 4.937-21.555 7.377-5.631 2.438-12.749 5.845-17.398 8.41-4.648 2.565-10.61 6.271-14.245 8.757-3.636 2.487-8.555 6.057-11.181 8.25-2.626 2.193-5.687 4.742-7.423 6.34l-3.962 3.65a63.285 63.285 0 0 0-2.083 2.051l8.68-8.073 8.365-6.796 8.746-6.296 10.035-6.309 9.498-5.102 9.782-4.544 10.033-3.971 11.338-3.598 10.487-2.626 10.632-2.009L250.2 80.36l10.833-.583 10.857.06 12.01.84 10.781 1.51 10.68 2.15 10.539 2.778 10.36 3.394 11.218 4.562 9.826 4.735 9.525 5.31 10.166 6.558 8.724 6.528 8.32 7.03 7.892 7.504 8.155 8.893 6.827 8.474 6.324 8.855 6.347 10.256 5.113 9.61 4.55 9.895 4.335 11.287 3.22 10.422 2.61 10.6 1.988 10.743 1.358 12.1.545 10.942-.103 10.966-.945 12.222-1.57 10.883-2.215 10.778-2.849 10.635-3.967 11.67-4.229 10.174-4.823 9.904-5.401 9.6-6.75 10.3-6.628 8.784-7.132 8.375-8.543 8.825-8.17 7.35-8.583 6.86-8.965 6.352-10.478 6.385-9.722 5.124-10.006 4.556-11.513 4.33-10.535 3.21-10.712 2.595-12.187 2.11-10.992 1.155-11.051.507-11.075-.147-12.433-1.049s31.365 4.262 42.695 2.965c7.831-.896 20.725-3.44 29.82-5.857 9.095-2.418 25.42-8.745 34.871-13.898 9.45-5.153 23.923-14.55 33.124-22.161 9.2-7.61 22.818-22.21 30.497-32.623 7.68-10.413 19.157-31.012 24.146-45.416 4.988-14.401 10.44-39.24 10.955-55.917.514-16.676-2.622-44.138-7.908-60.576-5.287-16.437-17.218-41.213-27.448-54.778-10.23-13.565-29.786-33.385-43.976-42.734-14.19-9.347-37.07-20.376-51.262-24.459-14.193-4.082-35.322-7.274-46.09-7.576-10.77-.302-23.458.663-24.362.773-.904.112-6.516.665-12.703 1.622-6.187.958-18.356 3.744-26.986 6.352-8.63 2.608-23.164 8.862-32.712 13.844-9.547 4.981-24.784 15.58-33.302 22.994-8.517 7.415-20.482 20.459-27.757 29.8-7.275 9.34-16.84 26.813-21.606 37.65-4.766 10.84-10.555 29.96-12.412 41.1-1.858 11.14-3.265 28.658-2.972 38.857.293 10.199 2.344 26.799 4.462 36.209 2.118 9.41 6.989 24.835 10.54 32.976 3.552 8.142 9.901 20.293 14.06 27.027 4.158 6.735 11.828 16.996 16.152 22.169 4.324 5.173 11.217 12.193 15.036 15.959 15.8 11.083 11.922 6.452 26.442 12.006 21.09 8.285 48.956-.67 53.736-9.951 4.782-9.282-1.412-34.333-26.852-59.661-3.848-3.533-5.5-4.863-9.937-9.792-4.437-4.93-5.537-6.058-9.923-12.597-4.386-6.538-5.742-8.936-9.636-16.992-3.893-8.057-4.368-9.859-6.915-19.38-2.547-9.52-2.84-12.078-3.581-22.649-.742-10.571-.99-12.421 1.095-24.484 2.086-12.063 2.124-15.338 7.501-27.422 5.377-12.085 6.885-15.975 15.232-26.65 8.348-10.676 11.57-13.904 21.942-22.095 10.373-8.19 13.097-10.103 25.175-15.032 12.077-4.929 15.944-6.69 27.041-8.37 11.097-1.682 15.002-2.413 23.078-2.075 8.077.337 11.055.49 11.71.573.653.083 2.98.076 9.027 1.109 6.047 1.032 9.757 1.308 18.794 4.296 9.037 2.989 14.023 4.618 24.409 10.553 10.385 5.936 15.67 9.622 25.283 18.82 9.612 9.196 14.492 14.674 21.678 27.207 7.187 12.533 11.227 20.647 14.686 35.225 3.46 14.576 5.051 24.517 4.113 39.396-.938 14.877-3.04 25.793-7.443 39.318-4.403 13.524-9.319 23.128-17.221 34.335-7.902 11.207-15.54 19.643-25.241 28.055-9.701 8.411-19.018 14.28-29.336 19.595.68-.095 1.602-.319 2.753-.663a38.375 38.375 0 0 0 3.926-1.416c1.566-.653 3.227-1.294 5.153-2.278 1.925-.984 3.954-1.927 6.184-3.26 2.23-1.332 4.538-2.643 7.016-4.335 2.48-1.69 4.972-3.424 7.645-5.479 2.674-2.054 5.255-4.245 8.07-6.664 2.815-2.42 5.27-4.956 8.035-7.87 2.766-2.916 5.322-5.7 7.946-9.098a244.53 244.53 0 0 0 7.672-10.538c2.579-3.732 4.562-7.427 6.848-11.587 2.287-4.16 4.032-8.117 5.95-12.654 1.918-4.537 3.35-8.721 4.834-13.57 1.485-4.85 2.553-9.21 3.553-14.298 1.002-5.088 1.633-9.567 2.118-14.812.485-5.244.617-9.773.57-15.09-.046-5.316-.443-9.807-1.02-15.11-.578-5.302-1.503-9.663-2.596-14.868-1.092-5.205-2.515-9.346-4.092-14.376-1.578-5.03-3.048-8.475-5.297-13.154-2.25-4.68-3.997-8.35-6.625-12.697-2.627-4.347-4.648-7.648-7.591-11.61-2.944-3.96-5.125-6.875-8.316-10.406-3.19-3.53-5.413-6.072-8.774-9.14a249.353 249.353 0 0 0-9.524-8.272c-3.32-2.749-5.648-4.258-8.992-6.519-3.343-2.26-5.339-3.597-8.619-5.374-3.28-1.777-5.734-3.107-8.791-4.578-3.057-1.471-5.283-2.417-8.066-3.598-2.782-1.18-4.7-1.813-7.156-2.724-2.457-.911-3.99-1.318-6.07-1.987-2.082-.67-3.168-.951-4.824-1.412v-.002" fill="#fff" fill-opacity="1"/></svg>

